<?xml version="1.0" standalone="no"?>
<!DOCTYPE svg PUBLIC "-//W3C//DTD SVG 20010904//EN"
 "http://www.w3.org/TR/2001/REC-SVG-20010904/DTD/svg10.dtd">
<svg version="1.0" xmlns="http://www.w3.org/2000/svg"
 width="150.000000pt" height="150.000000pt" viewBox="0 0 150.000000 150.000000"
 preserveAspectRatio="xMidYMid meet">

<g transform="translate(0.000000,150.000000) scale(0.100000,-0.100000)"
fill="#000000" stroke="none">
<path d="M619 1295 c-102 -33 -192 -121 -219 -213 -6 -20 -13 -100 -16 -177
-10 -227 15 -340 92 -419 38 -39 110 -79 162 -91 31 -6 32 -8 32 -56 0 -60 18
-105 54 -139 25 -23 37 -25 127 -28 l99 -4 0 66 0 66 -48 0 c-56 0 -72 12 -72
55 0 30 3 33 59 48 116 32 200 125 221 244 8 43 11 134 8 243 -3 163 -5 179
-29 231 -33 70 -88 124 -159 157 -46 21 -73 26 -160 29 -73 2 -119 -2 -151
-12z m224 -149 c39 -16 82 -61 96 -99 6 -16 11 -102 11 -200 0 -147 -3 -178
-19 -214 -51 -112 -230 -137 -322 -44 -49 49 -59 91 -59 256 0 194 20 253 98
295 45 23 147 27 195 6z"/>
</g>
</svg>
